<svg width="64" height="64" viewBox="0 0 64 64" xmlns="http://www.w3.org/2000/svg">
  <ellipse cx="32" cy="13" rx="10" ry="13" fill="#f7eec8" transform="rotate(315 32 32)"/>
  <ellipse cx="32" cy="13" rx="10" ry="13" fill="#f5e8b8" transform="rotate(0 32 32)"/>
  <ellipse cx="32" cy="13" rx="10" ry="13" fill="#f2dfa0" transform="rotate(45 32 32)"/>
  <ellipse cx="32" cy="13" rx="10" ry="13" fill="#eec888" transform="rotate(90 32 32)"/>
  <ellipse cx="32" cy="13" rx="10" ry="13" fill="#e8b070" transform="rotate(135 32 32)"/>
  <ellipse cx="32" cy="13" rx="10" ry="13" fill="#e89878" transform="rotate(180 32 32)"/>
  <ellipse cx="32" cy="13" rx="10" ry="13" fill="#e08878" transform="rotate(225 32 32)"/>
  <ellipse cx="32" cy="13" rx="10" ry="13" fill="#edb888" transform="rotate(270 32 32)"/>
  <circle cx="32" cy="32" r="12" fill="#e0b050"/>
  <circle cx="32" cy="32" r="7"  fill="#c08820"/>
  <circle cx="32" cy="32" r="3.5" fill="#906010"/>
</svg>
